<?xml version="1.0" standalone="no"?><!DOCTYPE svg PUBLIC "-//W3C//DTD SVG 1.1//EN" "http://www.w3.org/Graphics/SVG/1.1/DTD/svg11.dtd"><svg t="1745783386134" class="icon" viewBox="0 0 1114 1024" version="1.1" xmlns="http://www.w3.org/2000/svg" p-id="22227" xmlns:xlink="http://www.w3.org/1999/xlink" width="217.578125" height="200"><path d="M886.097796 1006.841483H218.021444q-29.937384 0-51.208683-20.483473T145.541462 935.937153V318.281658q0-28.361732 21.271299-49.633031T218.021444 247.377328h668.076352q29.937384 0 51.208682 21.271299T958.577777 318.281658v617.655495q0 29.937384-21.271299 50.420857T886.097796 1006.841483z m0-694.862432H218.021444q-4.726955 0-7.878259 2.363478t-3.151304 3.939129v617.655495q0 1.575652 3.151304 3.93913t7.878259 2.363477h668.076352q4.726955 0 7.090433-2.363477t2.363477-3.93913V318.281658q0-1.575652-2.363477-3.939129T886.097796 311.979051z m137.081704-1.575652H77.788436q-29.937384 0-51.208683-19.695647T5.308454 244.226025v-91.387803q0-26.78608 21.271299-46.481727T77.788436 86.660848h945.391064q29.937384 0 51.208683 19.695647T1095.659482 152.838222v91.387803q0 26.78608-21.271299 46.481727T1023.1795 310.403399z m-956.420626-155.989525v89.812151q3.151304 3.151304 11.029562 3.151303h945.391064q7.878259 0 11.029562-3.151303v-89.812151q-3.151304-4.726955-11.029562-4.726956H77.788436q-7.878259 0-11.029562 4.726956z m614.504191-6.302607H424.431826q-31.513035 0-52.784334-18.907822T350.376193 81.933892v-15.756518q0-26.78608 21.271299-46.481727T424.431826 0h256.831239q29.937384 0 51.208683 19.695647T753.743047 66.177374v15.756518q0 28.361732-21.271299 47.269553T681.263065 148.111267z m-267.860801-81.933893v15.756518q1.575652 4.726955 11.029562 4.726956h256.831239q9.453911 0 11.029563-4.726956v-15.756518q-3.151304-3.151304-11.029563-3.151303H424.431826q-9.453911 0-11.029562 3.151303z m-22.059125 340.340783h-44.11825q-9.453911 0-14.968692 5.514782T326.741416 425.425979v403.366854q0 7.878259 5.514781 13.39304t14.968692 5.514781h44.11825q7.878259 0 13.39304-5.514781t5.514781-13.39304V425.425979q0-7.878259-5.514781-13.39304T391.343139 406.518157z m376.580774 0h-44.11825q-7.878259 0-13.39304 5.514782T704.897842 425.425979v403.366854q0 7.878259 5.514781 13.39304t13.39304 5.514781h44.11825q7.878259 0 14.180866-5.514781t6.302607-13.39304V425.425979q0-7.878259-6.302607-13.39304t-14.180866-5.514782z m-187.502561 0h-45.693902q-7.878259 0-13.39304 5.514782T515.819629 425.425979v403.366854q0 7.878259 5.514781 13.39304t13.39304 5.514781h45.693902q7.878259 0 13.39304-5.514781t5.514781-13.39304V425.425979q0-7.878259-5.514781-13.39304T580.421352 406.518157z" p-id="22228" fill="#d81e06"></path></svg>