<?xml version="1.0" standalone="no"?><!DOCTYPE svg PUBLIC "-//W3C//DTD SVG 1.1//EN" "http://www.w3.org/Graphics/SVG/1.1/DTD/svg11.dtd"><svg t="1745785251500" class="icon" viewBox="0 0 1024 1024" version="1.1" xmlns="http://www.w3.org/2000/svg" p-id="24344" xmlns:xlink="http://www.w3.org/1999/xlink" width="200" height="200"><path d="M917.333333 885.333333a32 32 0 0 1-32 32h-746.666666a32 32 0 0 1 0-64h746.666666a32 32 0 0 1 32 32zM892.010667 298.944L450.752 739.776c-2.24 2.218667-4.714667 4.053333-7.36 5.504a31.765333 31.765333 0 0 1-18.154667 5.653333h-136.917333a32 32 0 0 1-32-31.936L256 581.397333c-0.021333-9.792 4.373333-18.56 11.306667-24.426666 0.725333-0.917333 1.514667-1.813333 2.368-2.666667L707.136 116.842667c3.882667-3.861333 8.490667-6.549333 13.397333-8.021334a32 32 0 0 1 34.218667 7.210667l135.765333 135.765333c1.109333 1.130667 2.133333 2.325333 3.050667 3.562667l-1.557333-1.664a32 32 0 0 1 2.090666 42.965333l-2.090666 2.282667z m-67.690667-22.826667l-92.970667-92.970666-411.306666 411.306666 0.213333 92.48h92.842667L824.32 276.117333z" fill="#000000" p-id="24345"></path></svg>