<?xml version="1.0" standalone="no"?><!DOCTYPE svg PUBLIC "-//W3C//DTD SVG 1.1//EN" "http://www.w3.org/Graphics/SVG/1.1/DTD/svg11.dtd"><svg t="1745772303071" class="icon" viewBox="0 0 1204 1024" version="1.1" xmlns="http://www.w3.org/2000/svg" p-id="19286" xmlns:xlink="http://www.w3.org/1999/xlink" width="235.15625" height="200"><path d="M1204.30233 595.185a35.238 35.238 0 0 0 0-5.24L978.54033 24.695a37.647 37.647 0 0 0-34.635-23.31H266.61933a37.647 37.647 0 0 0-40.719 23.31L0.19933 589.161a35.479 35.479 0 0 0 0 7.53 35.96 35.96 0 0 0 0 6.746v301.056a112.88 112.88 0 0 0 112.88 112.881h978.403a112.88 112.88 0 0 0 112.88-112.88V603.436a36.382 36.382 0 0 0 0-8.252zM289.14833 76.68h626.086l195.705 489.11H752.71833a37.647 37.647 0 0 0-37.647 33.13 112.88 112.88 0 1 1-225.762 0 37.647 37.647 0 0 0-37.647-33.13H93.50333L289.20833 76.68z m839.8 827.813a37.587 37.587 0 0 1-37.586 37.587H113.08033a37.647 37.647 0 0 1-37.587-37.587V641.084h347.678a187.332 187.332 0 0 0 357.436 0h348.401v263.41z" p-id="19287" fill="#d81e06"></path></svg>