<?xml version="1.0" standalone="no"?><!DOCTYPE svg PUBLIC "-//W3C//DTD SVG 1.1//EN" "http://www.w3.org/Graphics/SVG/1.1/DTD/svg11.dtd"><svg t="1745866547415" class="icon" viewBox="0 0 1024 1024" version="1.1" xmlns="http://www.w3.org/2000/svg" p-id="6524" xmlns:xlink="http://www.w3.org/1999/xlink" width="200" height="200"><path d="M997.12 400.64a25.6 25.6 0 0 0-20.672-17.408l-305.024-44.288L534.976 62.464c-0.32-0.64-0.896-1.024-1.28-1.6A25.408 25.408 0 0 0 529.92 56C529.088 55.168 528.256 54.336 527.296 53.696a23.424 23.424 0 0 0-4.928-2.816C521.216 50.368 520.192 49.792 519.04 49.472 518.592 49.344 518.272 49.024 517.824 48.96 516.224 48.576 514.624 48.704 512.96 48.64 511.936 48.576 510.976 48.384 509.952 48.448a24.576 24.576 0 0 0-9.088 2.432h-0.128c-0.32 0.128-0.512 0.512-0.832 0.64a25.152 25.152 0 0 0-6.4 4.928c-0.832 0.896-1.408 1.856-2.048 2.816-0.768 1.088-1.728 1.984-2.304 3.2l-136.448 276.48-305.152 44.416a25.6 25.6 0 0 0-14.208 43.648l220.8 215.168-52.16 303.872a25.536 25.536 0 0 0 37.12 26.944L512 829.504l272.896 143.488a25.728 25.728 0 0 0 26.944-1.92 25.6 25.6 0 0 0 10.176-25.024l-52.16-303.872 220.8-215.168a25.6 25.6 0 0 0 6.464-26.24z m-272.64 214.144a25.664 25.664 0 0 0-7.36 22.656l45.632 265.984-225.216-118.4V183.36l93.888 190.208a25.6 25.6 0 0 0 19.264 14.016l267.008 38.784-193.28 188.416z" p-id="6525"></path></svg>